<mxfile host="app.diagrams.net" modified="2023-11-06T15:10:14.650Z" agent="Mozilla/5.0 (Windows NT 10.0; Win64; x64) AppleWebKit/537.36 (KHTML, like Gecko) Chrome/119.0.0.0 Safari/537.36 Edg/119.0.0.0" etag="qCs0hFdHVE_h03qMRr1W" version="22.0.8" type="device">
  <diagram name="Page-1" id="ricUJVAGv_cyzM8LXu9T">
    <mxGraphModel dx="1002" dy="1665" grid="1" gridSize="10" guides="1" tooltips="1" connect="1" arrows="1" fold="1" page="1" pageScale="1" pageWidth="850" pageHeight="1100" math="0" shadow="0">
      <root>
        <mxCell id="0" />
        <mxCell id="1" parent="0" />
        <mxCell id="xVD_a_fbo3HG1hMFX_2f-3" value="" style="edgeStyle=orthogonalEdgeStyle;rounded=0;orthogonalLoop=1;jettySize=auto;html=1;" edge="1" parent="1" source="xVD_a_fbo3HG1hMFX_2f-1" target="xVD_a_fbo3HG1hMFX_2f-2">
          <mxGeometry relative="1" as="geometry" />
        </mxCell>
        <mxCell id="xVD_a_fbo3HG1hMFX_2f-1" value="start" style="ellipse;whiteSpace=wrap;html=1;" vertex="1" parent="1">
          <mxGeometry x="360" y="-60" width="120" height="80" as="geometry" />
        </mxCell>
        <mxCell id="xVD_a_fbo3HG1hMFX_2f-11" value="" style="edgeStyle=orthogonalEdgeStyle;rounded=0;orthogonalLoop=1;jettySize=auto;html=1;" edge="1" parent="1" source="xVD_a_fbo3HG1hMFX_2f-2" target="xVD_a_fbo3HG1hMFX_2f-10">
          <mxGeometry relative="1" as="geometry" />
        </mxCell>
        <mxCell id="xVD_a_fbo3HG1hMFX_2f-2" value="abc" style="shape=parallelogram;perimeter=parallelogramPerimeter;whiteSpace=wrap;html=1;fixedSize=1;" vertex="1" parent="1">
          <mxGeometry x="360" y="70" width="120" height="60" as="geometry" />
        </mxCell>
        <mxCell id="xVD_a_fbo3HG1hMFX_2f-13" value="" style="edgeStyle=orthogonalEdgeStyle;rounded=0;orthogonalLoop=1;jettySize=auto;html=1;" edge="1" parent="1" source="xVD_a_fbo3HG1hMFX_2f-10" target="xVD_a_fbo3HG1hMFX_2f-12">
          <mxGeometry relative="1" as="geometry" />
        </mxCell>
        <mxCell id="xVD_a_fbo3HG1hMFX_2f-19" style="edgeStyle=orthogonalEdgeStyle;rounded=0;orthogonalLoop=1;jettySize=auto;html=1;exitX=1;exitY=0.5;exitDx=0;exitDy=0;entryX=1;entryY=0.5;entryDx=0;entryDy=0;" edge="1" parent="1" source="xVD_a_fbo3HG1hMFX_2f-10" target="xVD_a_fbo3HG1hMFX_2f-17">
          <mxGeometry relative="1" as="geometry">
            <Array as="points">
              <mxPoint x="590" y="210" />
              <mxPoint x="590" y="480" />
            </Array>
          </mxGeometry>
        </mxCell>
        <mxCell id="xVD_a_fbo3HG1hMFX_2f-10" value="a=c" style="rhombus;whiteSpace=wrap;html=1;" vertex="1" parent="1">
          <mxGeometry x="380" y="170" width="80" height="80" as="geometry" />
        </mxCell>
        <mxCell id="xVD_a_fbo3HG1hMFX_2f-18" style="edgeStyle=orthogonalEdgeStyle;rounded=0;orthogonalLoop=1;jettySize=auto;html=1;exitX=0.5;exitY=1;exitDx=0;exitDy=0;" edge="1" parent="1" source="xVD_a_fbo3HG1hMFX_2f-12" target="xVD_a_fbo3HG1hMFX_2f-17">
          <mxGeometry relative="1" as="geometry" />
        </mxCell>
        <mxCell id="xVD_a_fbo3HG1hMFX_2f-12" value="thay a thành c&amp;nbsp;&lt;br&gt;thay c thành a" style="whiteSpace=wrap;html=1;" vertex="1" parent="1">
          <mxGeometry x="360" y="300" width="120" height="60" as="geometry" />
        </mxCell>
        <mxCell id="xVD_a_fbo3HG1hMFX_2f-14" value="sai" style="text;html=1;align=center;verticalAlign=middle;resizable=0;points=[];autosize=1;strokeColor=none;fillColor=none;" vertex="1" parent="1">
          <mxGeometry x="410" y="248" width="40" height="30" as="geometry" />
        </mxCell>
        <mxCell id="xVD_a_fbo3HG1hMFX_2f-17" value="end" style="ellipse;whiteSpace=wrap;html=1;" vertex="1" parent="1">
          <mxGeometry x="360" y="440" width="120" height="80" as="geometry" />
        </mxCell>
        <mxCell id="xVD_a_fbo3HG1hMFX_2f-20" value="đúng" style="text;html=1;align=center;verticalAlign=middle;resizable=0;points=[];autosize=1;strokeColor=none;fillColor=none;" vertex="1" parent="1">
          <mxGeometry x="585" y="298" width="50" height="30" as="geometry" />
        </mxCell>
      </root>
    </mxGraphModel>
  </diagram>
</mxfile>
